<?xml version="1.0" encoding="utf-8"?>
<!-- Generator: Adobe Illustrator 24.3.0, SVG Export Plug-In . SVG Version: 6.00 Build 0)  -->
<svg version="1.1" id="Layer_1" xmlns="http://www.w3.org/2000/svg" xmlns:xlink="http://www.w3.org/1999/xlink" x="0px" y="0px"
	 viewBox="0 0 4705.51 4393.7" style="enable-background:new 0 0 4705.51 4393.7;" xml:space="preserve">
<g>
	<path d="M1499.42,2280.22h107.38c5.39,0,10.36,1.06,14.9,3.17c4.55,2.12,8.53,5.77,11.94,10.97c5.89,9.05,6.34,22.71,1.32,40.99
		l-2.03,6.64c-5.18,16.94-10.96,29.25-17.36,36.95c-3.87,3.85-7.73,7.36-11.59,10.54c-3.86,3.18-8.7,6.11-14.53,8.8
		c-0.25,0.19-0.58,0.48-0.99,0.87c-0.41,0.39-0.7,0.87-0.87,1.44c-0.12,0.39-0.14,0.77-0.06,1.15c2.66,5.77,4.24,10.82,4.75,15.15
		c0.5,4.33,0.82,8.8,0.95,13.42l0.96,48.78c-0.09,1.54,0.21,2.94,0.89,4.19c0.67,1.25,0.95,2.07,0.84,2.45
		c-0.3,0.97-1.02,1.44-2.17,1.44h-39.83c-1.15,0-2.1-1.01-2.83-3.03c-0.73-2.02-1.08-3.7-1.05-5.05l-2.45-50.51
		c0.6-10.77-3.06-16.74-10.98-17.9h-35.21c-1.93,0-3.18,0.97-3.77,2.89l-21.62,70.72c-0.59,1.93-1.85,2.89-3.77,2.89h-36.08
		c-1.93,0-2.59-0.96-2-2.89l61.51-201.19C1496.24,2281.18,1497.49,2280.22,1499.42,2280.22z M1529.8,2317.74
		c-1.93,0-3.18,0.97-3.77,2.89l-14.38,47.05c-0.59,1.93,0.17,2.89,2.29,2.89h52.24c2.69,0,6.08-1.34,10.18-4.04
		c3.4-2.31,6.5-5.67,9.29-10.1c2.8-4.42,5.02-9.33,6.67-14.72c0.82-2.69,1.43-5.15,1.82-7.36c0.39-2.21,0.39-4.28,0.02-6.21
		c-1.14-6.35-3.74-9.81-7.79-10.39H1529.8z"/>
	<path d="M1651.12,2383.55c3.47-11.35,6.57-21.17,9.29-29.44c2.72-8.27,5.36-15.01,7.91-20.21c3.83-7.51,7.53-14.24,11.08-20.21
		c3.55-5.96,7.36-10.87,11.43-14.72c5.38-5,11.53-9.38,18.45-13.13c6.92-3.75,13.88-6.4,20.9-7.94c4.91-0.96,11.15-1.54,18.71-1.73
		c7.56-0.19,16.54-0.29,26.93-0.29c10.39,0,19.31,0.1,26.76,0.29c7.45,0.19,13.33,0.77,17.66,1.73c6.07,1.54,11.42,4.19,16.05,7.94
		c4.63,3.75,8.09,8.13,10.42,13.13c1.71,3.85,2.52,8.76,2.43,14.72c-0.09,5.97-0.52,12.7-1.27,20.21
		c-0.63,5.2-2.11,11.93-4.45,20.21c-2.34,8.28-5.24,18.09-8.71,29.44l-0.53,1.73c-3.47,11.36-6.57,21.17-9.29,29.44
		c-2.72,8.28-5.36,15.01-7.91,20.21c-3.84,7.5-7.53,14.24-11.08,20.21c-3.56,5.97-7.37,10.87-11.43,14.72
		c-5.38,5.01-11.53,9.38-18.45,13.13c-6.92,3.75-13.89,6.4-20.9,7.94c-4.91,0.96-11.15,1.54-18.71,1.73
		c-7.56,0.19-16.54,0.29-26.93,0.29c-10.39,0-19.31-0.1-26.76-0.29c-7.45-0.19-13.33-0.77-17.66-1.73
		c-6.07-1.54-11.42-4.19-16.05-7.94c-4.63-3.75-8.1-8.13-10.42-13.13c-1.71-3.85-2.52-8.75-2.43-14.72
		c0.09-5.96,0.51-12.7,1.27-20.21c0.62-5.2,2.1-11.93,4.45-20.21c2.33-8.27,5.24-18.09,8.71-29.44L1651.12,2383.55z
		 M1746.48,2316.15c-5.48,0.29-10.29,0.92-14.43,1.88c-7.46,1.73-13.41,5.15-17.85,10.25c-4.45,5.1-8.23,12.75-11.35,22.95
		l-20.3,66.39c-3.12,10.2-4.01,17.85-2.69,22.95c1.33,5.1,5.19,8.51,11.59,10.25c3.55,0.97,7.98,1.59,13.28,1.88
		c5.3,0.29,10.93,0.43,16.9,0.43c5.96,0,11.68-0.14,17.16-0.43c5.47-0.29,10.28-0.91,14.43-1.88c7.46-1.73,13.41-5.15,17.85-10.25
		c4.44-5.1,8.23-12.75,11.35-22.95l20.3-66.39c3.12-10.2,4.01-17.85,2.69-22.95c-1.33-5.1-5.19-8.52-11.59-10.25
		c-3.56-0.96-7.98-1.59-13.28-1.88c-5.3-0.29-10.93-0.43-16.9-0.43C1757.68,2315.72,1751.95,2315.86,1746.48,2316.15z"/>
	<path d="M1936.7,2297.25c4.6-7.5,10.27-12.22,17.02-14.14c6.74-1.92,15.41-2.89,25.99-2.89c10.97,0,19.28,0.97,24.95,2.89
		c5.66,1.93,8.51,6.64,8.52,14.14l0.48,188.2c-0.35,1.15-1.21,1.73-2.55,1.73h-37.81c-1.93,0-2.91-0.87-2.96-2.6l-0.03-49.94
		c0.01-1.92-0.95-2.89-2.87-2.89h-67.83c-1.93,0-3.5,1.06-4.72,3.18l-30.39,49.36c-1.17,1.93-2.71,2.89-4.63,2.89h-37.52
		c-1.54,0-2.13-0.58-1.78-1.73L1936.7,2297.25z M1970.12,2322.93c0.07-2.12,0.01-3.51-0.16-4.19c-0.18-0.67-0.75-1.01-1.71-1.01
		c-0.96,0-2.55,1.73-4.76,5.2l-40.33,65.81c-0.12,0.39-0.26,0.68-0.41,0.87c-0.16,0.19-0.26,0.39-0.32,0.58
		c-0.41,1.35,0.15,2.02,1.69,2.02h43.01c1.54,0,2.51-0.67,2.93-2.02c0.06-0.19,0.07-0.38,0.03-0.58c-0.04-0.19,0-0.48,0.12-0.87
		L1970.12,2322.93z"/>
	<path d="M2043.47,2484.29l61.51-201.19c0.59-1.92,1.84-2.89,3.77-2.89h98.43c10.97,0,19.8,2.12,26.49,6.35
		c6.69,4.23,11.61,9.72,14.74,16.45c3.14,6.74,4.58,14.43,4.34,23.09c-0.24,8.66-1.72,17.42-4.42,26.27l-21.18,69.27
		c-2.29,7.5-5.84,15.15-10.62,22.95c-4.79,7.79-10.75,14.87-17.89,21.22c-7.14,6.35-15.26,11.5-24.35,15.44
		c-9.1,3.95-19.13,5.92-30.1,5.92h-98.72C2043.55,2487.17,2042.88,2486.21,2043.47,2484.29z M2096.79,2446.76
		c-0.59,1.93,0.08,2.89,2,2.89h51.67c3.08,0,6.46-0.82,10.13-2.45c3.67-1.63,7.16-3.75,10.46-6.35c3.29-2.6,6.2-5.48,8.71-8.66
		c2.51-3.18,4.26-6.4,5.27-9.67l23.47-76.78c1.06-3.46,1.24-6.88,0.53-10.25c-0.7-3.36-2-6.35-3.9-8.95
		c-1.9-2.6-4.29-4.71-7.15-6.35c-2.87-1.63-6.03-2.45-9.5-2.45h-49.36c-1.93,0-3.18,0.97-3.77,2.89L2096.79,2446.76z"/>
	<path d="M2321.16,2401.16c-5.97,0-12.13-0.77-18.49-2.31c-6.36-1.54-11.66-4.52-15.88-8.95c-2.45-2.69-4.21-5.92-5.27-9.67
		c-1.07-3.75-1.66-7.79-1.78-12.12c-0.12-4.33,0.17-8.75,0.88-13.28c0.71-4.52,1.74-8.99,3.09-13.42c0.59-1.92,1.15-3.75,1.68-5.48
		c0.53-1.73,1.25-3.46,2.17-5.2c6.46-16.74,16.69-29.73,30.68-38.97c4.09-2.69,8.93-5.29,14.51-7.79c5.57-2.5,10.67-3.75,15.29-3.75
		h95.54c1.92,0,2.59,0.97,2,2.89l-9.71,31.75c-0.59,1.93-1.85,2.89-3.77,2.89h-83.42c-2.7,0-5.52,1.2-8.46,3.61
		c-2.95,2.41-5.23,4.67-6.84,6.78c-1.55,1.93-2.72,3.85-3.5,5.77c-0.78,1.93-1.47,3.85-2.05,5.77c-0.94,3.08-1.72,6.26-2.33,9.53
		c-0.62,3.27-0.15,6.16,1.39,8.66c1.47,2.12,4.02,3.37,7.66,3.75c3.63,0.39,7.66,0.58,12.09,0.58h32.33
		c5.96,0,11.97,0.82,18.01,2.45c6.04,1.64,11.15,4.76,15.32,9.38c2.45,2.7,4.19,5.97,5.23,9.81c1.03,3.85,1.6,7.99,1.69,12.41
		c0.09,4.43-0.31,9.05-1.21,13.85c-0.89,4.81-2.02,9.43-3.37,13.85c-0.65,2.12-1.27,4.14-1.85,6.06c-0.53,1.73-1.22,3.37-2.08,4.91
		c-6.9,17.51-17.17,30.98-30.83,40.41c-4.1,2.7-8.9,5.34-14.41,7.94c-5.51,2.6-10.38,3.9-14.61,3.9h-105.07
		c-1.93,0-2.59-0.96-2-2.89l9.71-31.75c0.59-1.92,1.84-2.89,3.77-2.89h92.94c2.89,0,5.81-1.39,8.78-4.19
		c2.97-2.79,5.29-5.34,6.96-7.65c1.61-2.11,2.8-4.14,3.58-6.06c0.78-1.92,1.49-3.94,2.14-6.06c0.94-3.08,1.73-6.3,2.38-9.67
		c0.64-3.36,0.22-6.4-1.26-9.09c-1.28-2.11-3.56-3.61-6.86-4.47c-3.3-0.87-7.35-1.3-12.16-1.3H2321.16z"/>
	<path d="M2494.37,2280.22h36.08c1.92,0,2.59,0.97,2,2.89l-61.51,201.19c-0.59,1.93-1.85,2.89-3.77,2.89h-36.08
		c-1.93,0-2.59-0.96-2-2.89l61.51-201.19C2491.19,2281.18,2492.44,2280.22,2494.37,2280.22z"/>
	<path d="M2506.73,2484.29l61.51-201.19c0.59-1.92,1.84-2.89,3.77-2.89h98.43c10.97,0,19.8,2.12,26.49,6.35
		c6.69,4.23,11.61,9.72,14.74,16.45c3.14,6.74,4.58,14.43,4.34,23.09c-0.24,8.66-1.72,17.42-4.42,26.27l-21.18,69.27
		c-2.29,7.5-5.84,15.15-10.62,22.95c-4.79,7.79-10.75,14.87-17.89,21.22c-7.14,6.35-15.26,11.5-24.35,15.44
		c-9.1,3.95-19.13,5.92-30.1,5.92h-98.72C2506.81,2487.17,2506.15,2486.21,2506.73,2484.29z M2560.06,2446.76
		c-0.59,1.93,0.08,2.89,2,2.89h51.67c3.08,0,6.46-0.82,10.13-2.45c3.67-1.63,7.16-3.75,10.46-6.35c3.29-2.6,6.2-5.48,8.71-8.66
		c2.51-3.18,4.26-6.4,5.27-9.67l23.47-76.78c1.06-3.46,1.24-6.88,0.53-10.25c-0.7-3.36-2-6.35-3.9-8.95
		c-1.9-2.6-4.29-4.71-7.15-6.35c-2.87-1.63-6.03-2.45-9.5-2.45h-49.36c-1.93,0-3.18,0.97-3.77,2.89L2560.06,2446.76z"/>
	<path d="M2753.63,2324.38c4-13.08,10.81-23.71,20.43-31.9c9.62-8.18,21.16-12.27,34.64-12.27h97.85c2.5,0,3.46,0.97,2.87,2.89
		l-9.71,31.75c-0.59,1.93-1.85,2.89-3.77,2.89h-95.54c-1.93,0-3.21,1.06-3.86,3.17l-12,39.26c-0.59,1.93,0.08,2.89,2,2.89h88.61
		c1.92,0,2.59,0.97,2,2.89l-10.15,33.19c-0.59,1.93-1.85,2.89-3.77,2.89h-88.61c-1.93,0-3.18,0.97-3.77,2.89l-12.8,41.85
		c-0.59,1.93,0.08,2.89,2,2.89h95.54c1.92,0,2.59,0.96,2,2.89l-9.71,31.75c-0.59,1.93-1.85,2.89-3.77,2.89h-111.71
		c-3.46,0-6.65-0.91-9.55-2.74c-2.91-1.83-5.26-4.19-7.07-7.07c-1.81-2.89-2.99-6.11-3.54-9.67c-0.55-3.56-0.26-7.17,0.86-10.82
		L2753.63,2324.38z"/>
	<path d="M3030.36,2453.98l-9.27,30.31c-0.59,1.93-1.85,2.89-3.77,2.89h-133.06c-1.93,0-2.59-0.96-2-2.89l16.06-52.53
		c2.35-7.69,5.1-14.19,8.27-19.48c3.16-5.29,6.56-9.81,10.21-13.57c3.65-3.75,7.52-6.97,11.62-9.67c4.09-2.69,8.23-5.2,12.4-7.5
		c3.92-2.12,8.64-4.04,14.18-5.77c5.53-1.73,11.39-3.41,17.56-5.05c6.17-1.63,12.4-3.41,18.66-5.34c6.26-1.92,12.05-4.19,17.37-6.78
		c5.31-2.6,9.95-5.63,13.89-9.09c3.95-3.46,6.68-7.69,8.21-12.7c0.47-1.54,0.82-3.46,1.04-5.77c0.22-2.31-0.05-4.57-0.81-6.78
		c-0.77-2.21-2.12-4.09-4.05-5.63c-1.94-1.54-4.73-2.31-8.39-2.31h-75.91c-1.93,0-2.59-0.96-2-2.89l9.27-30.31
		c0.59-1.92,1.84-2.89,3.77-2.89h75.91c10.2,0,18.39,1.83,24.59,5.48c6.19,3.66,10.75,8.28,13.66,13.85
		c2.91,5.58,4.46,11.69,4.64,18.33c0.18,6.64-0.64,12.94-2.46,18.91c-3.18,10.39-6.52,18.81-10.03,25.26
		c-3.51,6.45-7.92,11.88-13.21,16.31c-5.3,4.43-11.8,8.23-19.51,11.4c-7.71,3.18-17.31,6.59-28.82,10.25
		c-6.61,2.12-12.93,4.04-18.94,5.77c-6.01,1.73-11.37,3.51-16.06,5.34c-4.7,1.83-8.65,3.9-11.86,6.21c-3.21,2.31-5.34,5.2-6.4,8.66
		l-6.79,22.23c-0.59,1.93,0.08,2.89,2,2.89h88.04C3030.28,2451.09,3030.95,2452.06,3030.36,2453.98z"/>
	<path d="M3155.6,2484.29l10.77-35.21c0.59-1.92-0.08-2.89-2-2.89h-100.45c-1.93,0-2.59-0.96-2-2.89l13.5-44.16
		c0.41-1.34,0.92-2.4,1.55-3.18c0.62-0.77,1.46-1.63,2.53-2.6l119.66-109.11c2.13-1.92,4.02-3.08,5.68-3.46
		c1.66-0.38,3.45-0.58,5.37-0.58h30.89c5.2,0,9.75,0.53,13.66,1.59c3.91,1.06,5.51,2.74,4.81,5.05l-36.8,120.36
		c-0.59,1.93,0.08,2.89,2,2.89h12.12c1.92,0,2.59,0.97,2,2.89l-9.27,30.31c-0.59,1.93-1.46,2.89-2.61,2.89h-13.28
		c-1.93,0-3.18,0.97-3.77,2.89l-10.77,35.21c-0.59,1.93-1.85,2.89-3.77,2.89h-37.81C3155.68,2487.17,3155.01,2486.21,3155.6,2484.29
		z M3202.28,2331.59c0.41-1.34,0.33-2.02-0.25-2.02s-1.42,0.53-2.51,1.59c-1.1,1.06-2.02,1.88-2.77,2.45l-74.04,71.29
		c-0.81,0.77-1.44,1.4-1.87,1.88c-0.44,0.48-0.8,1.2-1.1,2.17c-0.18,0.58,0.1,0.92,0.85,1.01c0.74,0.1,1.49,0.14,2.27,0.14h52.53
		c1.92,0,3.18-0.96,3.77-2.89L3202.28,2331.59z"/>
</g>
<g>
	<g>
		<path d="M2421.01,1926.18c1.77-6.11,3.37-12.25,4.69-18.44c3.27-15.49,4.94-31.18,5.71-46.82c0.71-15.65,0.33-31.31-1.35-46.82
			c-0.93-7.75-1.99-15.47-3.72-23.07c-1.67-7.55-3.66-15.29-7.82-21.86c3.59,6.88,4.92,14.6,5.96,22.2c1.09,7.62,1.52,15.32,1.81,23
			c0.41,15.38-0.48,30.75-2.4,45.93c-1.99,15.16-4.85,30.19-9.17,44.72c-2.16,7.19-4.64,14.26-7.41,21.17h-27.52
			c38.77-114.87,11.58-214.67-52.95-190.94c-62.56,23.03-134.65,111.02-167.09,190.94h-20.58
			c91.17-200.55,184.9-233.89,237.67-214.4c0,0,97.18,41.05,149.08,66.18c51.12,24.74,68.89,74.73,61.45,148.23L2421.01,1926.18z"/>
		<path d="M2248.48,1840.86c-12.5,16.75-23.62,34.5-33.41,52.87c-5.65,10.61-10.8,21.45-15.5,32.46l-15,0
			c6.27-13.07,13.17-25.78,20.7-38.09c11.15-18.23,23.57-35.63,37.29-51.9c13.7-16.28,28.54-31.62,44.88-45.2
			c8.12-6.84,16.84-12.97,25.83-18.58c9.24-5.19,18.86-9.92,29.25-12.06c-20.4,5.93-37.32,19.32-52.6,33.46
			C2274.63,1808.15,2260.95,1824.1,2248.48,1840.86z"/>
	</g>
	<g>
		<path d="M2288.53,1995.48c-1.77,6.11-3.37,12.25-4.69,18.44c-3.27,15.49-4.94,31.18-5.71,46.82c-0.71,15.65-0.33,31.31,1.35,46.82
			c0.93,7.75,1.99,15.47,3.72,23.07c1.67,7.55,3.66,15.29,7.82,21.86c-3.59-6.88-4.92-14.6-5.96-22.2c-1.09-7.62-1.52-15.32-1.81-23
			c-0.41-15.38,0.48-30.75,2.4-45.93c1.99-15.16,4.84-30.19,9.17-44.72c2.16-7.19,4.64-14.26,7.41-21.17h27.52
			c-38.77,114.87-11.58,214.67,52.95,190.94c62.56-23.03,134.65-111.02,167.09-190.94h20.58
			c-91.17,200.55-184.9,233.89-237.67,214.4c0,0-97.18-41.05-149.08-66.18c-51.12-24.74-68.89-74.73-61.45-148.23L2288.53,1995.48z"
			/>
		<path d="M2461.06,2080.81c12.5-16.75,23.62-34.5,33.41-52.87c5.65-10.61,10.8-21.45,15.5-32.46l15.01,0
			c-6.27,13.07-13.17,25.78-20.7,38.09c-11.15,18.23-23.57,35.63-37.29,51.9c-13.7,16.28-28.54,31.62-44.88,45.2
			c-8.12,6.84-16.84,12.97-25.83,18.57c-9.24,5.19-18.86,9.92-29.25,12.06c20.4-5.93,37.32-19.32,52.6-33.46
			C2434.9,2113.52,2448.58,2097.56,2461.06,2080.81z"/>
	</g>
</g>
<rect x="1491.78" y="2235.94" width="1769.93" height="10.78"/>
</svg>
